<svg xmlns="http://www.w3.org/2000/svg" width="245" height="75" viewBox="0 0 245 75">
  <defs>
    <style>
      .cls-1 {
        fill: #afbdc0;
        fill-rule: evenodd;
      }
    </style>
  </defs>
  <path id="_Logo" data-name=" Logo" class="cls-1" d="M41.627,59.053v-25.7L63.5,25.383v21.74ZM39.44,29.485L15.58,20.8,39.44,12.121,63.3,20.8Zm28.44-8.614a4.363,4.363,0,0,0-2.871-4.1L40.944,8.019a4.273,4.273,0,0,0-3.008,0L13.871,16.77A4.363,4.363,0,0,0,11,20.871V47.123a4.349,4.349,0,0,0,2.29,3.828L37.355,64.078a4.248,4.248,0,0,0,4.17,0L65.589,50.952a4.349,4.349,0,0,0,2.29-3.828V20.871ZM101,49.314V12.955H93.767V55.874H119.58v-6.56H101Zm39.054-26.3c-10.116,0-17.044,6.683-17.044,16.554,0,9.81,6.928,16.554,17.044,16.554,10.056,0,16.984-6.744,16.984-16.554C157.04,29.694,150.112,23.011,140.056,23.011Zm0,6.07c5.825,0,9.933,4.292,9.933,10.546,0,6.315-4.108,10.607-9.933,10.607-5.886,0-9.993-4.292-9.993-10.607C130.063,33.372,134.17,29.081,140.056,29.081Zm53.77-5.825h-6.99v5.273c-2.268-3.556-6.008-5.579-11.036-5.518-8.645.061-14.47,6.315-14.47,15.512,0,9.381,5.886,15.757,14.715,15.757,4.905,0,8.584-1.962,10.791-5.518V52.87c0,5.641-4.047,9.258-10.239,9.258a16.475,16.475,0,0,1-10.239-3.556l-3,5.089a23.72,23.72,0,0,0,13.55,4.292c10.239,0,16.922-5.886,16.922-15.267V23.256ZM177.455,48.762c-5.64,0-9.442-4.169-9.5-10.055,0.061-5.825,3.924-9.994,9.5-9.994,5.518,0,9.381,4.108,9.381,9.994S182.973,48.762,177.455,48.762Zm40.158-25.751c-10.116,0-17.045,6.683-17.045,16.554,0,9.81,6.929,16.554,17.045,16.554,10.055,0,16.984-6.744,16.984-16.554C234.6,29.694,227.668,23.011,217.613,23.011Zm0,6.07c5.825,0,9.933,4.292,9.933,10.546,0,6.315-4.108,10.607-9.933,10.607-5.886,0-9.994-4.292-9.994-10.607C207.619,33.372,211.727,29.081,217.613,29.081Z"/>
</svg>
